<svg width="165" height="21" viewBox="0 0 165 21" fill="none" xmlns="http://www.w3.org/2000/svg">
<path d="M144 21V0H150V3H153V6H156V3H159V0H165V21H159V9H156V15H153V9H150V21H144Z" fill="white"/>
<path d="M123 21V18H120V0H126V18H135V0H141V18H138V21H123Z" fill="white"/>
<path d="M99 21V18H105V3H99V0H117V3H111V18H117V21H99Z" fill="white"/>
<path d="M72 21V15H75V12H78V9H81V6H84V3H72V0H93V6H90V9H87V12H84V15H81V18H93V21H72Z" fill="white"/>
<path d="M57 21V12H54V9H51V0H57V9H63V0H69V9H66V12H63V21H57Z" fill="white"/>
<path d="M27 21V0H33V18H45V21H27Z" fill="white"/>
<path d="M0 21V0H6V9H9V6H12V3H15V0H21V3H18V6H15V9H12V12H15V15H18V18H21V21H12V18H9V15H6V21H0Z" fill="white"/>
</svg>
